<svg width="48" height="48" viewBox="0 0 48 48" fill="none" xmlns="http://www.w3.org/2000/svg">


<path d="M46.5195 7.00186H34.3566C34.2588 7.00186 34.1623 7.04151 34.1012 7.11648C33.9334 7.32405 34.1094 7.62642 34.3427 7.62518H36.8501C38.2343 7.62518 39.4047 8.00375 39.7396 8.62459C39.8733 8.87305 39.8689 9.17232 39.7617 9.43317L30.9537 30.8261L21.1809 7.00372L8.02977 7C7.88536 7 7.79203 7.15242 7.79203 7.29431C7.79203 7.4362 7.90554 7.59977 8.04995 7.59915C9.19517 7.59482 10.7509 7.57995 11.9012 7.97959C12.9058 8.32842 13.3964 9.44618 12.9966 10.4171L0 42H7.22131C7.37203 42 7.51014 41.8507 7.50951 41.6964C7.50888 41.5595 7.37644 41.3953 7.23708 41.3916H4.60295C3.03079 41.3916 1.95684 39.8308 2.54206 38.3976L14.0933 10.1203C14.2055 9.84768 14.5984 9.84706 14.7113 10.1197L26.1635 37.739L28.662 37.7489C28.9079 37.7489 29.1293 37.6033 29.2226 37.3796L39.3082 12.906C39.4451 12.5721 39.9445 12.6142 39.9445 12.9748V38.3741C39.9445 40.0495 38.5761 41.3655 36.8709 41.3916H34.2134C34.074 41.3953 33.9422 41.5595 33.941 41.6964C33.9403 41.8507 34.0778 42 34.2292 42H44.1824C44.5052 42 44.796 41.8073 44.9177 41.513L46.8171 36.8994C46.9382 36.6058 47 36.2922 47 35.9756V7.47399C47 7.21314 46.785 7.00186 46.5195 7.00186Z" fill="black"/>
</svg>
