<svg width="48" height="48" viewBox="0 0 48 48" fill="none" xmlns="http://www.w3.org/2000/svg">
  <style>
    /* Define the colors for light mode */
    :root {
      --background-color: #fff;
      --foreground-color: #000;
      max-width: 48px;
      max-height: 48px;
    }
    /* Define the colors for dark mode */
    @media (prefers-color-scheme: dark) {
      :root {
        --background-color: #000;
        --foreground-color: #fff;
      }
    }
    /* Use the defined colors */
    path {
      fill: var(--foreground-color);
      stroke: var(--background-color);
    }
  </style>

<path d="M43.5808 9.00165H32.9706C32.8853 9.00165 32.8012 9.03677 32.7478 9.10317C32.6015 9.28702 32.755 9.55483 32.9585 9.55373H35.1458C36.3533 9.55373 37.3743 9.88904 37.6665 10.4389C37.7831 10.659 37.7792 10.9241 37.6857 11.1551L30.0022 30.1031L21.4769 9.00329L10.0047 9C9.87872 9 9.7973 9.135 9.7973 9.26067C9.7973 9.38635 9.89632 9.53123 10.0223 9.53068C11.0213 9.52684 12.3785 9.51367 13.3819 9.86764C14.2582 10.1766 14.6862 11.1666 14.3375 12.0266L3 40H9.29944C9.43092 40 9.5514 39.8677 9.55085 39.7311C9.5503 39.6098 9.43477 39.4644 9.31319 39.4611H7.01534C5.64388 39.4611 4.70703 38.0787 5.21754 36.8093L15.2941 11.7637C15.392 11.5222 15.7348 11.5217 15.8332 11.7632L25.8234 36.226L28.003 36.2348C28.2176 36.2348 28.4107 36.1058 28.4921 35.9077L37.2902 14.2311C37.4095 13.9353 37.8452 13.9726 37.8452 14.292V36.7885C37.8452 38.2724 36.6515 39.438 35.1639 39.4611H32.8457C32.7242 39.4644 32.6092 39.6098 32.6081 39.7311C32.6075 39.8677 32.7275 40 32.8595 40H41.5421C41.8237 40 42.0773 39.8293 42.1835 39.5686L43.8405 35.4824C43.9461 35.2222 44 34.9446 44 34.6641V9.41982C44 9.18878 43.8124 9.00165 43.5808 9.00165Z" fill="black"/>
</svg>

