<svg width="256" height="256" fill="none" xmlns="http://www.w3.org/2000/svg">
    <style>
        #logo { fill: #FF5D01; }
        @media (prefers-color-scheme: dark) {
            #a { fill: #fff; }
        }
    </style>
<path id="logo" d="M744.17 5.93H551.3c-1.55 0-3.08.64-4.05 1.85-2.66 3.35.13 8.23 3.83 8.21h39.76c21.95 0 40.51 6.11 45.82 16.13 2.12 4.01 2.05 8.84.35 13.05L497.34 390.44 342.37 5.96 133.83 5.9c-2.29 0-3.77 2.46-3.77 4.75s1.8 4.93 4.09 4.92c18.16-.07 42.83-.31 61.07 6.14 15.93 5.63 23.71 23.67 17.37 39.34L6.5 570.78h114.51c2.39 0 4.58-2.41 4.57-4.9-.01-2.21-2.11-4.86-4.32-4.92H79.49c-24.93 0-41.96-25.19-32.68-48.32L229.98 56.26c1.78-4.4 8.01-4.41 9.8-.01l181.6 445.76 39.62.16a9.6 9.6 0 0 0 8.89-5.96l159.93-394.99c2.17-5.39 10.09-4.71 10.09 1.11v409.93c0 27.04-21.7 48.28-48.74 48.7h-42.14c-2.21.06-4.3 2.71-4.32 4.92-.01 2.49 2.17 4.9 4.57 4.9h157.83c5.12 0 9.73-3.11 11.66-7.86l30.12-74.46c1.92-4.74 2.9-9.8 2.9-14.91v-460c0-4.21-3.41-7.62-7.62-7.62Z"/>
</svg>